<?xml version="1.0" encoding="utf-8"?>
<!-- Generator: Adobe Illustrator 19.0.0, SVG Export Plug-In . SVG Version: 6.00 Build 0)  -->
<svg version="1.1" id="レイヤー_1" xmlns="http://www.w3.org/2000/svg" xmlns:xlink="http://www.w3.org/1999/xlink" x="0px"
	 y="0px" viewBox="-262.9 213.1 72.7 76" style="enable-background:new -262.9 213.1 72.7 76;" xml:space="preserve">
<style type="text/css">
	.st0{fill:#2D9100;}
	.st1{fill:#FFFFFF;}
</style>
<g>
	<path class="st0" d="M-190.8,227.8c0.6,1,0.9,2,0,3c-5.8,1.1-11.6,2.6-17.4,3.1c-5.9,0.5-7.5,2.4-5.5,8.2c1,2.8,2.4,5.7,2.5,8.6
		c0.5,14.7-4.7,31.2-22.8,36c-0.9,0.3-1.8,0.8-2.7,1.2c-3.5,1.8-8.7,1.5-13,0c-5.5-2.5-9.5-6.5-12-12c-1.7-3.5-1.6-8.7,0-13
		c2.2-5.3,4.5-10.7,6.7-16c5.2-13,13.5-17.4,27.2-14.5c2.8,0.6,5.5,1.7,8.3,2.5c0.3-0.3,0.6-0.7,0.8-1c-1.2-1.3-2.1-3.1-3.6-3.8
		c-2.7-1.5-5.7-2.3-8.6-2.9c-8.1-1.5-9.7-4.4-5.9-11.5c3-3.3,6.4-3.6,10,0c3.8,4,7.7,8,11.8,12.2c0.3-0.2,1-0.5,1.7-1
		C-202.8,219.7-200.2,219.8-190.8,227.8z M-233.7,275.7c1.1,3.4,3,4.9,7.2,4.1c4.6-0.9,5.3-3.7,5.9-7.3c0.8-5.1,1.9-10.1,2.9-15.2
		c0.5-2.6,1-5.1-2.9-5.4c-3.3-0.3-6.4-0.7-6.9,4c-0.4,3.9-1.4,7.7-2,11.2c-2.5-2.3-4.7-5.9-6.8-5.8c-2.5,0.1-4.8,3.5-7.4,5.7
		c-0.3-3.8-0.5-7.8-0.9-11.7c-0.5-4.8-4.3-3-7-3.1c-2.9-0.1-3.8,1.4-3.2,4.1c1,4.9,1.8,9.8,2.7,14.7c1.7,9,1.9,9.3,10.9,8.1
		C-238.8,278.8-236.7,277.1-233.7,275.7z M-238.5,239.2c0.1,0.6,0.1,1.2,0.2,1.8c-2.2,0.6-4.5,0.9-6.5,1.8c-1.5,0.7-2.5,2.3-3.7,3.5
		c1.4,1.2,2.7,3.3,4.2,3.5c3.3,0.3,6.7-0.3,10.4-0.6c-0.4-4.8,1.8-10-4-12.1c-3.1-1.1-6.4-0.8-9.9,2.6
		C-243.7,239.5-241.1,239.4-238.5,239.2z M-224,236.2c-0.5,0-1,0-1.6,0c0,4.3,0,8.6,0,12.9c0.5,0,1,0,1.6,0
		C-224,244.7-224,240.5-224,236.2z M-228.6,236.2c-0.6,0-1.3,0-1.9,0c-1.1,4.3-1.2,8.6,0.3,12.7c0.5,0,1.1,0,1.6,0
		C-228.6,244.7-228.6,240.4-228.6,236.2z"/>
	<path class="st1" d="M-236.8,287.8c0.9-0.4,2-0.4,2.7-1.2c13.3-13.3,23.3-21.3,22.8-36c-0.1-2.9-1.5-5.8-2.5-8.6
		c-2-5.8-0.4-7.7,5.5-8.2c5.9-0.5,11.6-2,17.4-3.1c0,19,0,38,0,57C-206.1,287.8-221.4,287.8-236.8,287.8z"/>
	<path class="st1" d="M-236.8,215.8c-3.8,7.1-2.2,10,5.9,11.5c2.9,0.5,5.8,1.4,8.5,2.6c1.5,0.7,2.4,2.5,3.6,3.8
		c-0.3,0.3-0.6,0.7-0.8,1c-2.8-0.8-5.5-1.9-8.3-2.5c-13.7-2.9-21.9,1.6-27.2,14.5c-2.2,5.4-4.4,10.7-6.7,16c0-15.6,0-31.1,0-47
		C-253.4,215.8-245.1,215.8-236.8,215.8z"/>
	<path class="st1" d="M-190.8,227.8c-9.4-8-12.1-8-22.6-0.8c-0.7,0.5-1.4,0.8-1.7,1c-4.1-4.2-7.9-8.2-11.8-12.2c12,0,24,0,36,0
		C-190.8,219.8-190.8,223.8-190.8,227.8z"/>
	<path class="st1" d="M-261.8,275.8c2.5,5.5,6.5,9.5,12,12c-4,0-8,0-12,0C-261.8,283.8-261.8,279.8-261.8,275.8z"/>
	<path class="st1" d="M-233.7,275.7c-2.9,1.4-5.1,3.2-7.5,3.5c-9.1,1.2-9.3,0.9-10.9-8.1c-1-5-1.8-9.9-2.7-14.8
		c-0.5-2.7,0.4-4.3,3.2-4.1c2.7,0.1,6.5-1.7,7,3.1c0.4,3.9,0.6,7.9,0.8,11.6c2.6-2.2,4.9-5.6,7.4-5.7c2.1-0.1,4.3,3.6,6.8,5.8
		c0.7-3.5,1.6-7.3,2-11.2c0.5-4.7,3.6-4.3,6.9-4c3.9,0.4,3.4,2.9,2.9,5.4c-1,5.1-2,10.1-2.9,15.2c-0.6,3.6-1.3,6.4-5.9,7.3
		C-230.8,280.6-232.7,279-233.7,275.7z"/>
	<path class="st1" d="M-238.5,239.2c-2.6,0.1-5.3,0.3-9.3,0.5c3.5-3.4,6.8-3.7,9.9-2.6c5.8,2.1,3.6,7.3,4,12.1
		c-3.6,0.3-7,0.9-10.4,0.6c-1.5-0.1-2.8-2.3-4.2-3.5c1.2-1.2,2.2-2.8,3.7-3.5c2-1,4.3-1.3,6.5-1.8
		C-238.3,240.4-238.4,239.8-238.5,239.2z M-237.4,246.5c-0.2-0.9-0.4-1.8-0.6-2.7c-2.3,0.5-4.5,1.1-6.8,1.6c0.2,0.8,0.4,1.6,0.5,2.5
		C-242,247.4-239.7,246.9-237.4,246.5z"/>
	<path class="st1" d="M-224,236.2c0,4.3,0,8.6,0,12.9c-0.5,0-1,0-1.6,0c0-4.3,0-8.6,0-12.9C-225.1,236.2-224.5,236.2-224,236.2z"/>
	<path class="st1" d="M-228.6,236.2c0,4.2,0,8.5,0,12.7c-0.5,0-1.1,0-1.6,0c-1.6-4.2-1.4-8.4-0.3-12.7
		C-229.9,236.2-229.3,236.2-228.6,236.2z"/>
	<path class="st0" d="M-237.4,246.5c-2.3,0.4-4.6,0.9-6.9,1.3c-0.2-0.8-0.4-1.6-0.5-2.5c2.3-0.5,4.5-1.1,6.8-1.6
		C-237.8,244.7-237.6,245.6-237.4,246.5z"/>
</g>
</svg>
